TITLE ""
FILE "LR_black_phrase_B01.mp3" MP3
  TRACK 01 AUDIO
    TITLE "LR_black_phrase_B01_001"
    INDEX 01 00:00:00
  TRACK 02 AUDIO
    TITLE "LR_black_phrase_B01_002"
    INDEX 01 00:00:16
  TRACK 03 AUDIO
    TITLE "LR_black_phrase_B01_003"
    INDEX 01 00:01:37
  TRACK 04 AUDIO
    TITLE "LR_black_phrase_B01_004"
    INDEX 01 00:02:01
  TRACK 05 AUDIO
    TITLE "LR_black_phrase_B01_005"
    INDEX 01 00:04:67
  TRACK 06 AUDIO
    TITLE "LR_black_phrase_B01_006"
    INDEX 01 00:05:66
  TRACK 07 AUDIO
    TITLE "LR_black_phrase_B01_007"
    INDEX 01 00:08:04
  TRACK 08 AUDIO
    TITLE "LR_black_phrase_B01_008"
    INDEX 01 00:08:45
  TRACK 09 AUDIO
    TITLE "LR_black_phrase_B01_009"
    INDEX 01 00:10:28
  TRACK 10 AUDIO
    TITLE "LR_black_phrase_B01_010"
    INDEX 01 00:10:58
  TRACK 11 AUDIO
    TITLE "LR_black_phrase_B01_011"
    INDEX 01 00:12:41
  TRACK 12 AUDIO
    TITLE "LR_black_phrase_B01_012"
    INDEX 01 00:13:44
  TRACK 13 AUDIO
    TITLE "LR_black_phrase_B01_013"
    INDEX 01 00:15:06
  TRACK 14 AUDIO
    TITLE "LR_black_phrase_B01_014"
    INDEX 01 00:15:45
  TRACK 15 AUDIO
    TITLE "LR_black_phrase_B01_015"
    INDEX 01 00:18:12
  TRACK 16 AUDIO
    TITLE "LR_black_phrase_B01_016"
    INDEX 01 00:19:12
  TRACK 17 AUDIO
    TITLE "LR_black_phrase_B01_017"
    INDEX 01 00:21:12
  TRACK 18 AUDIO
    TITLE "LR_black_phrase_B01_018"
    INDEX 01 00:21:54
  TRACK 19 AUDIO
    TITLE "LR_black_phrase_B01_019"
    INDEX 01 00:23:68
  TRACK 20 AUDIO
    TITLE "LR_black_phrase_B01_020"
    INDEX 01 00:24:25
  TRACK 21 AUDIO
    TITLE "LR_black_phrase_B01_021"
    INDEX 01 00:26:39
  TRACK 22 AUDIO
    TITLE "LR_black_phrase_B01_022"
    INDEX 01 00:27:42
  TRACK 23 AUDIO
    TITLE "LR_black_phrase_B01_023"
    INDEX 01 00:28:58
  TRACK 24 AUDIO
    TITLE "LR_black_phrase_B01_024"
    INDEX 01 00:29:22
  TRACK 25 AUDIO
    TITLE "LR_black_phrase_B01_025"
    INDEX 01 00:32:08
  TRACK 26 AUDIO
    TITLE "LR_black_phrase_B01_026"
    INDEX 01 00:33:08
  TRACK 27 AUDIO
    TITLE "LR_black_phrase_B01_027"
    INDEX 01 00:35:28
  TRACK 28 AUDIO
    TITLE "LR_black_phrase_B01_028"
    INDEX 01 00:35:58
  TRACK 29 AUDIO
    TITLE "LR_black_phrase_B01_029"
    INDEX 01 00:38:03
  TRACK 30 AUDIO
    TITLE "LR_black_phrase_B01_030"
    INDEX 01 00:38:25
  TRACK 31 AUDIO
    TITLE "LR_black_phrase_B01_031"
    INDEX 01 00:40:47
  TRACK 32 AUDIO
    TITLE "LR_black_phrase_B01_032"
    INDEX 01 00:41:52
  TRACK 33 AUDIO
    TITLE "LR_black_phrase_B01_033"
    INDEX 01 00:42:56
  TRACK 34 AUDIO
    TITLE "LR_black_phrase_B01_034"
    INDEX 01 00:43:20
  TRACK 35 AUDIO
    TITLE "LR_black_phrase_B01_035"
    INDEX 01 00:45:46
  TRACK 36 AUDIO
    TITLE "LR_black_phrase_B01_036"
    INDEX 01 00:46:46
  TRACK 37 AUDIO
    TITLE "LR_black_phrase_B01_037"
    INDEX 01 00:49:01
  TRACK 38 AUDIO
    TITLE "LR_black_phrase_B01_038"
    INDEX 01 00:49:42
  TRACK 39 AUDIO
    TITLE "LR_black_phrase_B01_039"
    INDEX 01 00:51:66
  TRACK 40 AUDIO
    TITLE "LR_black_phrase_B01_040"
    INDEX 01 00:52:23
  TRACK 41 AUDIO
    TITLE "LR_black_phrase_B01_041"
    INDEX 01 00:54:45
  TRACK 42 AUDIO
    TITLE "LR_black_phrase_B01_042"
    INDEX 01 00:55:52
  TRACK 43 AUDIO
    TITLE "LR_black_phrase_B01_043"
    INDEX 01 00:56:73
  TRACK 44 AUDIO
    TITLE "LR_black_phrase_B01_044"
    INDEX 01 00:57:40
  TRACK 45 AUDIO
    TITLE "LR_black_phrase_B01_045"
    INDEX 01 00:59:19
  TRACK 46 AUDIO
    TITLE "LR_black_phrase_B01_046"
    INDEX 01 01:00:16
  TRACK 47 AUDIO
    TITLE "LR_black_phrase_B01_047"
    INDEX 01 01:02:49
  TRACK 48 AUDIO
    TITLE "LR_black_phrase_B01_048"
    INDEX 01 01:03:15
  TRACK 49 AUDIO
    TITLE "LR_black_phrase_B01_049"
    INDEX 01 01:05:27
  TRACK 50 AUDIO
    TITLE "LR_black_phrase_B01_050"
    INDEX 01 01:05:57
  TRACK 51 AUDIO
    TITLE "LR_black_phrase_B01_051"
    INDEX 01 01:07:69
  TRACK 52 AUDIO
    TITLE "LR_black_phrase_B01_052"
    INDEX 01 01:09:00
  TRACK 53 AUDIO
    TITLE "LR_black_phrase_B01_053"
    INDEX 01 01:10:17
  TRACK 54 AUDIO
    TITLE "LR_black_phrase_B01_054"
    INDEX 01 01:10:58
  TRACK 55 AUDIO
    TITLE "LR_black_phrase_B01_055"
    INDEX 01 01:13:21
  TRACK 56 AUDIO
    TITLE "LR_black_phrase_B01_056"
    INDEX 01 01:14:22
  TRACK 57 AUDIO
    TITLE "LR_black_phrase_B01_057"
    INDEX 01 01:16:00
  TRACK 58 AUDIO
    TITLE "LR_black_phrase_B01_058"
    INDEX 01 01:16:39
  TRACK 59 AUDIO
    TITLE "LR_black_phrase_B01_059"
    INDEX 01 01:19:18
  TRACK 60 AUDIO
    TITLE "LR_black_phrase_B01_060"
    INDEX 01 01:19:41
  TRACK 61 AUDIO
    TITLE "LR_black_phrase_B01_061"
    INDEX 01 01:22:20
  TRACK 62 AUDIO
    TITLE "LR_black_phrase_B01_062"
    INDEX 01 01:23:19
  TRACK 63 AUDIO
    TITLE "LR_black_phrase_B01_063"
    INDEX 01 01:24:50
  TRACK 64 AUDIO
    TITLE "LR_black_phrase_B01_064"
    INDEX 01 01:25:14
  TRACK 65 AUDIO
    TITLE "LR_black_phrase_B01_065"
    INDEX 01 01:26:14
  TRACK 66 AUDIO
    TITLE "LR_black_phrase_B01_066"
    INDEX 01 01:27:15
  TRACK 67 AUDIO
    TITLE "LR_black_phrase_B01_067"
    INDEX 01 01:28:66
  TRACK 68 AUDIO
    TITLE "LR_black_phrase_B01_068"
    INDEX 01 01:29:30
  TRACK 69 AUDIO
    TITLE "LR_black_phrase_B01_069"
    INDEX 01 01:31:17
  TRACK 70 AUDIO
    TITLE "LR_black_phrase_B01_070"
    INDEX 01 01:31:46
  TRACK 71 AUDIO
    TITLE "LR_black_phrase_B01_071"
    INDEX 01 01:33:35
  TRACK 72 AUDIO
    TITLE "LR_black_phrase_B01_072"
    INDEX 01 01:34:39
  TRACK 73 AUDIO
    TITLE "LR_black_phrase_B01_073"
    INDEX 01 01:35:72
  TRACK 74 AUDIO
    TITLE "LR_black_phrase_B01_074"
    INDEX 01 01:36:38
  TRACK 75 AUDIO
    TITLE "LR_black_phrase_B01_075"
    INDEX 01 01:39:13
  TRACK 76 AUDIO
    TITLE "LR_black_phrase_B01_076"
    INDEX 01 01:40:12
  TRACK 77 AUDIO
    TITLE "LR_black_phrase_B01_077"
    INDEX 01 01:42:58
  TRACK 78 AUDIO
    TITLE "LR_black_phrase_B01_078"
    INDEX 01 01:43:18
  TRACK 79 AUDIO
    TITLE "LR_black_phrase_B01_079"
    INDEX 01 01:46:03
  TRACK 80 AUDIO
    TITLE "LR_black_phrase_B01_080"
    INDEX 01 01:46:34
  TRACK 81 AUDIO
    TITLE "LR_black_phrase_B01_081"
    INDEX 01 01:49:19
  TRACK 82 AUDIO
    TITLE "LR_black_phrase_B01_082"
    INDEX 01 01:50:30
  TRACK 83 AUDIO
    TITLE "LR_black_phrase_B01_083"
    INDEX 01 01:51:43
  TRACK 84 AUDIO
    TITLE "LR_black_phrase_B01_084"
    INDEX 01 01:52:07
  TRACK 85 AUDIO
    TITLE "LR_black_phrase_B01_085"
    INDEX 01 01:54:28
  TRACK 86 AUDIO
    TITLE "LR_black_phrase_B01_086"
    INDEX 01 01:55:29
  TRACK 87 AUDIO
    TITLE "LR_black_phrase_B01_087"
    INDEX 01 01:57:46
  TRACK 88 AUDIO
    TITLE "LR_black_phrase_B01_088"
    INDEX 01 01:58:12
  TRACK 89 AUDIO
    TITLE "LR_black_phrase_B01_089"
    INDEX 01 02:00:23
  TRACK 90 AUDIO
    TITLE "LR_black_phrase_B01_090"
    INDEX 01 02:00:52
  TRACK 91 AUDIO
    TITLE "LR_black_phrase_B01_091"
    INDEX 01 02:02:63
  TRACK 92 AUDIO
    TITLE "LR_black_phrase_B01_092"
    INDEX 01 02:03:68
  TRACK 93 AUDIO
    TITLE "LR_black_phrase_B01_093"
    INDEX 01 02:05:24
  TRACK 94 AUDIO
    TITLE "LR_black_phrase_B01_094"
    INDEX 01 02:05:57
  TRACK 95 AUDIO
    TITLE "LR_black_phrase_B01_095"
    INDEX 01 02:07:54
  TRACK 96 AUDIO
    TITLE "LR_black_phrase_B01_096"
    INDEX 01 02:08:55
  TRACK 97 AUDIO
    TITLE "LR_black_phrase_B01_097"
    INDEX 01 02:10:37
  TRACK 98 AUDIO
    TITLE "LR_black_phrase_B01_098"
    INDEX 01 02:11:03
  TRACK 99 AUDIO
    TITLE "LR_black_phrase_B01_099"
    INDEX 01 02:13:13
  TRACK 100 AUDIO
    TITLE "LR_black_phrase_B01_100"
    INDEX 01 02:13:37
  TRACK 101 AUDIO
    TITLE "LR_black_phrase_B01_101"
    INDEX 01 02:15:48
  TRACK 102 AUDIO
    TITLE "LR_black_phrase_B01_102"
    INDEX 01 02:16:47
  TRACK 103 AUDIO
    TITLE "LR_black_phrase_B01_103"
    INDEX 01 02:17:66
  TRACK 104 AUDIO
    TITLE "LR_black_phrase_B01_104"
    INDEX 01 02:18:26
  TRACK 105 AUDIO
    TITLE "LR_black_phrase_B01_105"
    INDEX 01 02:21:11
  TRACK 106 AUDIO
    TITLE "LR_black_phrase_B01_106"
    INDEX 01 02:22:10
  TRACK 107 AUDIO
    TITLE "LR_black_phrase_B01_107"
    INDEX 01 02:24:39
  TRACK 108 AUDIO
    TITLE "LR_black_phrase_B01_108"
    INDEX 01 02:25:01
  TRACK 109 AUDIO
    TITLE "LR_black_phrase_B01_109"
    INDEX 01 02:27:06
  TRACK 110 AUDIO
    TITLE "LR_black_phrase_B01_110"
    INDEX 01 02:27:33
  TRACK 111 AUDIO
    TITLE "LR_black_phrase_B01_111"
    INDEX 01 02:29:38
  TRACK 112 AUDIO
    TITLE "LR_black_phrase_B01_112"
    INDEX 01 02:30:41
  TRACK 113 AUDIO
    TITLE "LR_black_phrase_B01_113"
    INDEX 01 02:31:62
  TRACK 114 AUDIO
    TITLE "LR_black_phrase_B01_114"
    INDEX 01 02:32:24
  TRACK 115 AUDIO
    TITLE "LR_black_phrase_B01_115"
    INDEX 01 02:34:43
  TRACK 116 AUDIO
    TITLE "LR_black_phrase_B01_116"
    INDEX 01 02:35:40
  TRACK 117 AUDIO
    TITLE "LR_black_phrase_B01_117"
    INDEX 01 02:38:02
  TRACK 118 AUDIO
    TITLE "LR_black_phrase_B01_118"
    INDEX 01 02:38:37
  TRACK 119 AUDIO
    TITLE "LR_black_phrase_B01_119"
    INDEX 01 02:40:65
  TRACK 120 AUDIO
    TITLE "LR_black_phrase_B01_120"
    INDEX 01 02:41:14
  TRACK 121 AUDIO
    TITLE "LR_black_phrase_B01_121"
    INDEX 01 02:43:42
  TRACK 122 AUDIO
    TITLE "LR_black_phrase_B01_122"
    INDEX 01 02:44:45
  TRACK 123 AUDIO
    TITLE "LR_black_phrase_B01_123"
    INDEX 01 02:45:66
  TRACK 124 AUDIO
    TITLE "LR_black_phrase_B01_124"
    INDEX 01 02:46:27
  TRACK 125 AUDIO
    TITLE "LR_black_phrase_B01_125"
    INDEX 01 02:48:53
  TRACK 126 AUDIO
    TITLE "LR_black_phrase_B01_126"
    INDEX 01 02:49:54
  TRACK 127 AUDIO
    TITLE "LR_black_phrase_B01_127"
    INDEX 01 02:51:63
  TRACK 128 AUDIO
    TITLE "LR_black_phrase_B01_128"
    INDEX 01 02:52:27
  TRACK 129 AUDIO
    TITLE "LR_black_phrase_B01_129"
    INDEX 01 02:54:63
  TRACK 130 AUDIO
    TITLE "LR_black_phrase_B01_130"
    INDEX 01 02:55:18
  TRACK 131 AUDIO
    TITLE "LR_black_phrase_B01_131"
    INDEX 01 02:57:52
  TRACK 132 AUDIO
    TITLE "LR_black_phrase_B01_132"
    INDEX 01 02:58:57
  TRACK 133 AUDIO
    TITLE "LR_black_phrase_B01_133"
    INDEX 01 02:59:70
  TRACK 134 AUDIO
    TITLE "LR_black_phrase_B01_134"
    INDEX 01 03:00:35
  TRACK 135 AUDIO
    TITLE "LR_black_phrase_B01_135"
    INDEX 01 03:02:45
  TRACK 136 AUDIO
    TITLE "LR_black_phrase_B01_136"
    INDEX 01 03:03:45
  TRACK 137 AUDIO
    TITLE "LR_black_phrase_B01_137"
    INDEX 01 03:05:51
  TRACK 138 AUDIO
    TITLE "LR_black_phrase_B01_138"
    INDEX 01 03:06:14
  TRACK 139 AUDIO
    TITLE "LR_black_phrase_B01_139"
    INDEX 01 03:08:28
  TRACK 140 AUDIO
    TITLE "LR_black_phrase_B01_140"
    INDEX 01 03:08:58
  TRACK 141 AUDIO
    TITLE "LR_black_phrase_B01_141"
    INDEX 01 03:10:70
  TRACK 142 AUDIO
    TITLE "LR_black_phrase_B01_142"
    INDEX 01 03:12:01
  TRACK 143 AUDIO
    TITLE "LR_black_phrase_B01_143"
    INDEX 01 03:13:23
  TRACK 144 AUDIO
    TITLE "LR_black_phrase_B01_144"
    INDEX 01 03:13:63
  TRACK 145 AUDIO
    TITLE "LR_black_phrase_B01_145"
    INDEX 01 03:16:36
  TRACK 146 AUDIO
    TITLE "LR_black_phrase_B01_146"
    INDEX 01 03:17:35
  TRACK 147 AUDIO
    TITLE "LR_black_phrase_B01_147"
    INDEX 01 03:20:06
  TRACK 148 AUDIO
    TITLE "LR_black_phrase_B01_148"
    INDEX 01 03:20:47
  TRACK 149 AUDIO
    TITLE "LR_black_phrase_B01_149"
    INDEX 01 03:23:67
  TRACK 150 AUDIO
    TITLE "LR_black_phrase_B01_150"
    INDEX 01 03:24:21
  TRACK 151 AUDIO
    TITLE "LR_black_phrase_B01_151"
    INDEX 01 03:27:41
  TRACK 152 AUDIO
    TITLE "LR_black_phrase_B01_152"
    INDEX 01 03:28:47
  TRACK 153 AUDIO
    TITLE "LR_black_phrase_B01_153"
    INDEX 01 03:29:69
  TRACK 154 AUDIO
    TITLE "LR_black_phrase_B01_154"
    INDEX 01 03:30:32
  TRACK 155 AUDIO
    TITLE "LR_black_phrase_B01_155"
    INDEX 01 03:32:07
  TRACK 156 AUDIO
    TITLE "LR_black_phrase_B01_156"
    INDEX 01 03:33:07
  TRACK 157 AUDIO
    TITLE "LR_black_phrase_B01_157"
    INDEX 01 03:35:35
  TRACK 158 AUDIO
    TITLE "LR_black_phrase_B01_158"
    INDEX 01 03:35:68
  TRACK 159 AUDIO
    TITLE "LR_black_phrase_B01_159"
    INDEX 01 03:38:16
  TRACK 160 AUDIO
    TITLE "LR_black_phrase_B01_160"
    INDEX 01 03:38:47
  TRACK 161 AUDIO
    TITLE "LR_black_phrase_B01_161"
    INDEX 01 03:40:69
  TRACK 162 AUDIO
    TITLE "LR_black_phrase_B01_162"
    INDEX 01 03:42:09
  TRACK 163 AUDIO
    TITLE "LR_black_phrase_B01_163"
    INDEX 01 03:43:25
  TRACK 164 AUDIO
    TITLE "LR_black_phrase_B01_164"
    INDEX 01 03:43:56
  TRACK 165 AUDIO
    TITLE "LR_black_phrase_B01_165"
    INDEX 01 03:45:25
  TRACK 166 AUDIO
    TITLE "LR_black_phrase_B01_166"
    INDEX 01 03:46:25
  TRACK 167 AUDIO
    TITLE "LR_black_phrase_B01_167"
    INDEX 01 03:48:37
  TRACK 168 AUDIO
    TITLE "LR_black_phrase_B01_168"
    INDEX 01 03:48:69
  TRACK 169 AUDIO
    TITLE "LR_black_phrase_B01_169"
    INDEX 01 03:50:72
  TRACK 170 AUDIO
    TITLE "LR_black_phrase_B01_170"
    INDEX 01 03:51:16
  TRACK 171 AUDIO
    TITLE "LR_black_phrase_B01_171"
    INDEX 01 03:53:19
  TRACK 172 AUDIO
    TITLE "LR_black_phrase_B01_172"
    INDEX 01 03:54:19
  TRACK 173 AUDIO
    TITLE "LR_black_phrase_B01_173"
    INDEX 01 03:55:18
  TRACK 174 AUDIO
    TITLE "LR_black_phrase_B01_174"
    INDEX 01 03:55:57
  TRACK 175 AUDIO
    TITLE "LR_black_phrase_B01_175"
    INDEX 01 03:57:07
  TRACK 176 AUDIO
    TITLE "LR_black_phrase_B01_176"
    INDEX 01 03:58:07
  TRACK 177 AUDIO
    TITLE "LR_black_phrase_B01_177"
    INDEX 01 04:00:54
  TRACK 178 AUDIO
    TITLE "LR_black_phrase_B01_178"
    INDEX 01 04:01:11
  TRACK 179 AUDIO
    TITLE "LR_black_phrase_B01_179"
    INDEX 01 04:04:44
  TRACK 180 AUDIO
    TITLE "LR_black_phrase_B01_180"
    INDEX 01 04:04:66
  TRACK 181 AUDIO
    TITLE "LR_black_phrase_B01_181"
    INDEX 01 04:08:24
  TRACK 182 AUDIO
    TITLE "LR_black_phrase_B01_182"
    INDEX 01 04:09:30
  TRACK 183 AUDIO
    TITLE "LR_black_phrase_B01_183"
    INDEX 01 04:10:53
  TRACK 184 AUDIO
    TITLE "LR_black_phrase_B01_184"
    INDEX 01 04:11:17
  TRACK 185 AUDIO
    TITLE "LR_black_phrase_B01_185"
    INDEX 01 04:13:35
  TRACK 186 AUDIO
    TITLE "LR_black_phrase_B01_186"
    INDEX 01 04:14:37
  TRACK 187 AUDIO
    TITLE "LR_black_phrase_B01_187"
    INDEX 01 04:16:06
  TRACK 188 AUDIO
    TITLE "LR_black_phrase_B01_188"
    INDEX 01 04:16:48
  TRACK 189 AUDIO
    TITLE "LR_black_phrase_B01_189"
    INDEX 01 04:18:54
  TRACK 190 AUDIO
    TITLE "LR_black_phrase_B01_190"
    INDEX 01 04:19:09
  TRACK 191 AUDIO
    TITLE "LR_black_phrase_B01_191"
    INDEX 01 04:21:17
  TRACK 192 AUDIO
    TITLE "LR_black_phrase_B01_192"
    INDEX 01 04:22:23
  TRACK 193 AUDIO
    TITLE "LR_black_phrase_B01_193"
    INDEX 01 04:23:40
  TRACK 194 AUDIO
    TITLE "LR_black_phrase_B01_194"
    INDEX 01 04:24:06
  TRACK 195 AUDIO
    TITLE "LR_black_phrase_B01_195"
    INDEX 01 04:26:48
  TRACK 196 AUDIO
    TITLE "LR_black_phrase_B01_196"
    INDEX 01 04:27:47
  TRACK 197 AUDIO
    TITLE "LR_black_phrase_B01_197"
    INDEX 01 04:29:60
  TRACK 198 AUDIO
    TITLE "LR_black_phrase_B01_198"
    INDEX 01 04:30:24
  TRACK 199 AUDIO
    TITLE "LR_black_phrase_B01_199"
    INDEX 01 04:32:41
  TRACK 200 AUDIO
    TITLE "LR_black_phrase_B01_200"
    INDEX 01 04:32:70
  TRACK 201 AUDIO
    TITLE "LR_black_phrase_B01_201"
    INDEX 01 04:35:12
  TRACK 202 AUDIO
    TITLE "LR_black_phrase_B01_202"
    INDEX 01 04:36:15
  TRACK 203 AUDIO
    TITLE "LR_black_phrase_B01_203"
    INDEX 01 04:37:32
  TRACK 204 AUDIO
    TITLE "LR_black_phrase_B01_204"
    INDEX 01 04:37:73
  TRACK 205 AUDIO
    TITLE "LR_black_phrase_B01_205"
    INDEX 01 04:40:17
  TRACK 206 AUDIO
    TITLE "LR_black_phrase_B01_206"
    INDEX 01 04:41:16
  TRACK 207 AUDIO
    TITLE "LR_black_phrase_B01_207"
    INDEX 01 04:43:64
  TRACK 208 AUDIO
    TITLE "LR_black_phrase_B01_208"
    INDEX 01 04:44:28
  TRACK 209 AUDIO
    TITLE "LR_black_phrase_B01_209"
    INDEX 01 04:46:55
  TRACK 210 AUDIO
    TITLE "LR_black_phrase_B01_210"
    INDEX 01 04:47:07
  TRACK 211 AUDIO
    TITLE "LR_black_phrase_B01_211"
    INDEX 01 04:49:29
  TRACK 212 AUDIO
    TITLE "LR_black_phrase_B01_212"
    INDEX 01 04:50:35
  TRACK 213 AUDIO
    TITLE "LR_black_phrase_B01_213"
    INDEX 01 04:51:54
  TRACK 214 AUDIO
    TITLE "LR_black_phrase_B01_214"
    INDEX 01 04:52:20
  TRACK 215 AUDIO
    TITLE "LR_black_phrase_B01_215"
    INDEX 01 04:53:64
  TRACK 216 AUDIO
    TITLE "LR_black_phrase_B01_216"
    INDEX 01 04:54:64
  TRACK 217 AUDIO
    TITLE "LR_black_phrase_B01_217"
    INDEX 01 04:57:05
  TRACK 218 AUDIO
    TITLE "LR_black_phrase_B01_218"
    INDEX 01 04:57:50
  TRACK 219 AUDIO
    TITLE "LR_black_phrase_B01_219"
    INDEX 01 04:59:43
  TRACK 220 AUDIO
    TITLE "LR_black_phrase_B01_220"
    INDEX 01 05:00:00
  TRACK 221 AUDIO
    TITLE "LR_black_phrase_B01_221"
    INDEX 01 05:01:72
  TRACK 222 AUDIO
    TITLE "LR_black_phrase_B01_222"
    INDEX 01 05:03:02
  TRACK 223 AUDIO
    TITLE "LR_black_phrase_B01_223"
    INDEX 01 05:04:25
  TRACK 224 AUDIO
    TITLE "LR_black_phrase_B01_224"
    INDEX 01 05:04:64
  TRACK 225 AUDIO
    TITLE "LR_black_phrase_B01_225"
    INDEX 01 05:06:32
  TRACK 226 AUDIO
    TITLE "LR_black_phrase_B01_226"
    INDEX 01 05:07:29
  TRACK 227 AUDIO
    TITLE "LR_black_phrase_B01_227"
    INDEX 01 05:09:16
  TRACK 228 AUDIO
    TITLE "LR_black_phrase_B01_228"
    INDEX 01 05:09:54
  TRACK 229 AUDIO
    TITLE "LR_black_phrase_B01_229"
    INDEX 01 05:11:52
  TRACK 230 AUDIO
    TITLE "LR_black_phrase_B01_230"
    INDEX 01 05:12:17
  TRACK 231 AUDIO
    TITLE "LR_black_phrase_B01_231"
    INDEX 01 05:14:23
  TRACK 232 AUDIO
    TITLE "LR_black_phrase_B01_232"
    INDEX 01 05:15:25
  TRACK 233 AUDIO
    TITLE "LR_black_phrase_B01_233"
    INDEX 01 05:16:54
  TRACK 234 AUDIO
    TITLE "LR_black_phrase_B01_234"
    INDEX 01 05:17:16
  TRACK 235 AUDIO
    TITLE "LR_black_phrase_B01_235"
    INDEX 01 05:20:20
  TRACK 236 AUDIO
    TITLE "LR_black_phrase_B01_236"
    INDEX 01 05:21:20
  TRACK 237 AUDIO
    TITLE "LR_black_phrase_B01_237"
    INDEX 01 05:23:58
  TRACK 238 AUDIO
    TITLE "LR_black_phrase_B01_238"
    INDEX 01 05:24:22
  TRACK 239 AUDIO
    TITLE "LR_black_phrase_B01_239"
    INDEX 01 05:26:56
  TRACK 240 AUDIO
    TITLE "LR_black_phrase_B01_240"
    INDEX 01 05:27:08
  TRACK 241 AUDIO
    TITLE "LR_black_phrase_B01_241"
    INDEX 01 05:29:43
  TRACK 242 AUDIO
    TITLE "LR_black_phrase_B01_242"
    INDEX 01 05:30:46
  TRACK 243 AUDIO
    TITLE "LR_black_phrase_B01_243"
    INDEX 01 05:31:63
  TRACK 244 AUDIO
    TITLE "LR_black_phrase_B01_244"
    INDEX 01 05:32:33
  TRACK 245 AUDIO
    TITLE "LR_black_phrase_B01_245"
    INDEX 01 05:35:12
  TRACK 246 AUDIO
    TITLE "LR_black_phrase_B01_246"
    INDEX 01 05:36:09
  TRACK 247 AUDIO
    TITLE "LR_black_phrase_B01_247"
    INDEX 01 05:37:66
  TRACK 248 AUDIO
    TITLE "LR_black_phrase_B01_248"
    INDEX 01 05:38:30
  TRACK 249 AUDIO
    TITLE "LR_black_phrase_B01_249"
    INDEX 01 05:40:37
  TRACK 250 AUDIO
    TITLE "LR_black_phrase_B01_250"
    INDEX 01 05:40:64
  TRACK 251 AUDIO
    TITLE "LR_black_phrase_B01_251"
    INDEX 01 05:42:71
  TRACK 252 AUDIO
    TITLE "LR_black_phrase_B01_252"
    INDEX 01 05:44:01
  TRACK 253 AUDIO
    TITLE "LR_black_phrase_B01_253"
    INDEX 01 05:45:22
  TRACK 254 AUDIO
    TITLE "LR_black_phrase_B01_254"
    INDEX 01 05:45:61
  TRACK 255 AUDIO
    TITLE "LR_black_phrase_B01_255"
    INDEX 01 05:47:21
  TRACK 256 AUDIO
    TITLE "LR_black_phrase_B01_256"
    INDEX 01 05:48:22
  TRACK 257 AUDIO
    TITLE "LR_black_phrase_B01_257"
    INDEX 01 05:50:74
  TRACK 258 AUDIO
    TITLE "LR_black_phrase_B01_258"
    INDEX 01 05:51:40
  TRACK 259 AUDIO
    TITLE "LR_black_phrase_B01_259"
    INDEX 01 05:54:01
  TRACK 260 AUDIO
    TITLE "LR_black_phrase_B01_260"
    INDEX 01 05:54:33
  TRACK 261 AUDIO
    TITLE "LR_black_phrase_B01_261"
    INDEX 01 05:56:71
  TRACK 262 AUDIO
    TITLE "LR_black_phrase_B01_262"
    INDEX 01 05:57:74
  TRACK 263 AUDIO
    TITLE "LR_black_phrase_B01_263"
    INDEX 01 05:59:14
  TRACK 264 AUDIO
    TITLE "LR_black_phrase_B01_264"
    INDEX 01 05:59:53
  TRACK 265 AUDIO
    TITLE "LR_black_phrase_B01_265"
    INDEX 01 06:02:01
  TRACK 266 AUDIO
    TITLE "LR_black_phrase_B01_266"
    INDEX 01 06:03:02
  TRACK 267 AUDIO
    TITLE "LR_black_phrase_B01_267"
    INDEX 01 06:04:74
  TRACK 268 AUDIO
    TITLE "LR_black_phrase_B01_268"
    INDEX 01 06:05:36
  TRACK 269 AUDIO
    TITLE "LR_black_phrase_B01_269"
    INDEX 01 06:07:28
  TRACK 270 AUDIO
    TITLE "LR_black_phrase_B01_270"
    INDEX 01 06:07:57
  TRACK 271 AUDIO
    TITLE "LR_black_phrase_B01_271"
    INDEX 01 06:09:48
  TRACK 272 AUDIO
    TITLE "LR_black_phrase_B01_272"
    INDEX 01 06:10:51
  TRACK 273 AUDIO
    TITLE "LR_black_phrase_B01_273"
    INDEX 01 06:12:07
  TRACK 274 AUDIO
    TITLE "LR_black_phrase_B01_274"
    INDEX 01 06:12:46
  TRACK 275 AUDIO
    TITLE "LR_black_phrase_B01_275"
    INDEX 01 06:14:49
  TRACK 276 AUDIO
    TITLE "LR_black_phrase_B01_276"
    INDEX 01 06:15:45
  TRACK 277 AUDIO
    TITLE "LR_black_phrase_B01_277"
    INDEX 01 06:18:14
  TRACK 278 AUDIO
    TITLE "LR_black_phrase_B01_278"
    INDEX 01 06:18:55
  TRACK 279 AUDIO
    TITLE "LR_black_phrase_B01_279"
    INDEX 01 06:21:47
  TRACK 280 AUDIO
    TITLE "LR_black_phrase_B01_280"
    INDEX 01 06:22:02
  TRACK 281 AUDIO
    TITLE "LR_black_phrase_B01_281"
    INDEX 01 06:24:69
  TRACK 282 AUDIO
    TITLE "LR_black_phrase_B01_282"
    INDEX 01 06:25:74
  TRACK 283 AUDIO
    TITLE "LR_black_phrase_B01_283"
    INDEX 01 06:27:24
  TRACK 284 AUDIO
    TITLE "LR_black_phrase_B01_284"
    INDEX 01 06:27:65
  TRACK 285 AUDIO
    TITLE "LR_black_phrase_B01_285"
    INDEX 01 06:29:27
  TRACK 286 AUDIO
    TITLE "LR_black_phrase_B01_286"
    INDEX 01 06:30:25
  TRACK 287 AUDIO
    TITLE "LR_black_phrase_B01_287"
    INDEX 01 06:32:53
  TRACK 288 AUDIO
    TITLE "LR_black_phrase_B01_288"
    INDEX 01 06:33:17
  TRACK 289 AUDIO
    TITLE "LR_black_phrase_B01_289"
    INDEX 01 06:35:57
  TRACK 290 AUDIO
    TITLE "LR_black_phrase_B01_290"
    INDEX 01 06:36:12
  TRACK 291 AUDIO
    TITLE "LR_black_phrase_B01_291"
    INDEX 01 06:38:54
  TRACK 292 AUDIO
    TITLE "LR_black_phrase_B01_292"
    INDEX 01 06:39:57
  TRACK 293 AUDIO
    TITLE "LR_black_phrase_B01_293"
    INDEX 01 06:40:72
  TRACK 294 AUDIO
    TITLE "LR_black_phrase_B01_294"
    INDEX 01 06:41:36
  TRACK 295 AUDIO
    TITLE "LR_black_phrase_B01_295"
    INDEX 01 06:42:47
  TRACK 296 AUDIO
    TITLE "LR_black_phrase_B01_296"
    INDEX 01 06:43:47
  TRACK 297 AUDIO
    TITLE "LR_black_phrase_B01_297"
    INDEX 01 06:46:10
  TRACK 298 AUDIO
    TITLE "LR_black_phrase_B01_298"
    INDEX 01 06:46:49
  TRACK 299 AUDIO
    TITLE "LR_black_phrase_B01_299"
    INDEX 01 06:49:06
  TRACK 300 AUDIO
    TITLE "LR_black_phrase_B01_300"
    INDEX 01 06:49:34
  TRACK 301 AUDIO
    TITLE "LR_black_phrase_B01_301"
    INDEX 01 06:51:66
